<svg xmlns="http://www.w3.org/2000/svg" viewBox="0 0 512 512" width="512" height="512">
  <!-- Background -->
  <rect width="512" height="512" rx="100" fill="#050508" stroke="#00f2fe" stroke-width="4"/>
  
  <!-- Cyber grids -->
  <path d="M 0 128 L 512 128 M 0 256 L 512 256 M 0 384 L 512 384 M 128 0 L 128 512 M 256 0 L 256 512 M 384 0 L 384 512" stroke="rgba(0, 242, 254, 0.05)" stroke-width="2"/>
  
  <!-- Glowing target reticle -->
  <circle cx="256" cy="256" r="160" fill="none" stroke="#00f2fe" stroke-dasharray="20 30" stroke-width="3" opacity="0.3"/>
  <circle cx="256" cy="256" r="80" fill="none" stroke="#b10dc9" stroke-width="2" opacity="0.4"/>
  
  <!-- Shield shape -->
  <path d="M 256 120 C 320 120 368 138 368 138 L 368 256 C 368 336 256 392 256 392 C 256 392 144 336 144 256 L 144 138 C 144 138 192 120 256 120 Z" fill="rgba(0, 242, 254, 0.08)" stroke="#00f2fe" stroke-width="8" filter="drop-shadow(0px 0px 16px #00f2fe)"/>
  
  <!-- Inner lock core -->
  <path d="M 256 192 C 238 192 224 206 224 224 L 224 242 H 212 V 288 H 300 V 242 H 288 V 224 C 288 206 274 192 256 192 Z M 256 206 C 265 206 274 214 274 224 L 274 242 H 238 L 238 224 C 238 214 247 206 256 206 Z" fill="#b10dc9"/>
</svg>
